<?xml version="1.0" encoding="UTF-8" standalone="no"?>
<!DOCTYPE svg PUBLIC "-//W3C//DTD SVG 1.1//EN"
 "http://www.w3.org/Graphics/SVG/1.1/DTD/svg11.dtd">
<!-- Generated by graphviz version 2.50.0 (20211204.2007)
 -->
<!-- Title: G Pages: 1 -->
<svg width="2001pt" height="512pt"
 viewBox="0.00 0.00 2001.20 512.20" xmlns="http://www.w3.org/2000/svg" xmlns:xlink="http://www.w3.org/1999/xlink">
<g id="graph0" class="graph" transform="scale(1 1) rotate(0) translate(21.6 490.6)">
<title>G</title>
<polygon fill="#111111" stroke="transparent" points="-21.6,21.6 -21.6,-490.6 1979.6,-490.6 1979.6,21.6 -21.6,21.6"/>
<!-- App.js -->
<g id="node1" class="node">
<title>App.js</title>
<path fill="none" stroke="#c6c5fe" d="M49.33,-247C49.33,-247 7.67,-247 7.67,-247 3.83,-247 0,-243.17 0,-239.33 0,-239.33 0,-231.67 0,-231.67 0,-227.83 3.83,-224 7.67,-224 7.67,-224 49.33,-224 49.33,-224 53.17,-224 57,-227.83 57,-231.67 57,-231.67 57,-239.33 57,-239.33 57,-243.17 53.17,-247 49.33,-247"/>
<text text-anchor="middle" x="28.5" y="-231.8" font-family="Arial" font-size="14.00" fill="#c6c5fe">App.js</text>
</g>
<!-- example&#45;list.js -->
<g id="node2" class="node">
<title>example&#45;list.js</title>
<path fill="none" stroke="#c6c5fe" d="M192.33,-247C192.33,-247 100.67,-247 100.67,-247 96.83,-247 93,-243.17 93,-239.33 93,-239.33 93,-231.67 93,-231.67 93,-227.83 96.83,-224 100.67,-224 100.67,-224 192.33,-224 192.33,-224 196.17,-224 200,-227.83 200,-231.67 200,-231.67 200,-239.33 200,-239.33 200,-243.17 196.17,-247 192.33,-247"/>
<text text-anchor="middle" x="146.5" y="-231.8" font-family="Arial" font-size="14.00" fill="#c6c5fe">example&#45;list.js</text>
</g>
<!-- App.js&#45;&gt;example&#45;list.js -->
<g id="edge1" class="edge">
<title>App.js&#45;&gt;example&#45;list.js</title>
<path fill="none" stroke="#757575" d="M57.28,-235.5C65.08,-235.5 73.88,-235.5 82.83,-235.5"/>
<polygon fill="#757575" stroke="#757575" points="82.95,-239 92.95,-235.5 82.95,-232 82.95,-239"/>
</g>
<!-- examples/1&#45;hello&#45;world/HelloWorld2.js -->
<g id="node5" class="node">
<title>examples/1&#45;hello&#45;world/HelloWorld2.js</title>
<path fill="none" stroke="#c6c5fe" d="M488.33,-306C488.33,-306 243.67,-306 243.67,-306 239.83,-306 236,-302.17 236,-298.33 236,-298.33 236,-290.67 236,-290.67 236,-286.83 239.83,-283 243.67,-283 243.67,-283 488.33,-283 488.33,-283 492.17,-283 496,-286.83 496,-290.67 496,-290.67 496,-298.33 496,-298.33 496,-302.17 492.17,-306 488.33,-306"/>
<text text-anchor="middle" x="366" y="-290.8" font-family="Arial" font-size="14.00" fill="#c6c5fe">examples/1&#45;hello&#45;world/HelloWorld2.js</text>
</g>
<!-- example&#45;list.js&#45;&gt;examples/1&#45;hello&#45;world/HelloWorld2.js -->
<g id="edge2" class="edge">
<title>example&#45;list.js&#45;&gt;examples/1&#45;hello&#45;world/HelloWorld2.js</title>
<path fill="none" stroke="#757575" d="M175.03,-247.05C192.31,-253.97 215.19,-262.56 236,-268.5 252.53,-273.22 270.48,-277.4 287.6,-280.97"/>
<polygon fill="#757575" stroke="#757575" points="287.07,-284.43 297.56,-283 288.46,-277.57 287.07,-284.43"/>
</g>
<!-- examples/11&#45;news/WorldwideNews.js -->
<g id="node6" class="node">
<title>examples/11&#45;news/WorldwideNews.js</title>
<path fill="none" stroke="#c6c5fe" d="M486.83,-185C486.83,-185 245.17,-185 245.17,-185 241.33,-185 237.5,-181.17 237.5,-177.33 237.5,-177.33 237.5,-169.67 237.5,-169.67 237.5,-165.83 241.33,-162 245.17,-162 245.17,-162 486.83,-162 486.83,-162 490.67,-162 494.5,-165.83 494.5,-169.67 494.5,-169.67 494.5,-177.33 494.5,-177.33 494.5,-181.17 490.67,-185 486.83,-185"/>
<text text-anchor="middle" x="366" y="-169.8" font-family="Arial" font-size="14.00" fill="#c6c5fe">examples/11&#45;news/WorldwideNews.js</text>
</g>
<!-- example&#45;list.js&#45;&gt;examples/11&#45;news/WorldwideNews.js -->
<g id="edge3" class="edge">
<title>example&#45;list.js&#45;&gt;examples/11&#45;news/WorldwideNews.js</title>
<path fill="none" stroke="#757575" d="M174.24,-224C191.61,-216.83 214.87,-207.81 236,-201.5 254.15,-196.08 274.02,-191.24 292.62,-187.17"/>
<polygon fill="#757575" stroke="#757575" points="293.46,-190.57 302.5,-185.05 291.99,-183.73 293.46,-190.57"/>
</g>
<!-- examples/2&#45;login&#45;screen/FacebookLogin.js -->
<g id="node7" class="node">
<title>examples/2&#45;login&#45;screen/FacebookLogin.js</title>
<path fill="none" stroke="#c6c5fe" d="M1210.83,-347C1210.83,-347 936.17,-347 936.17,-347 932.33,-347 928.5,-343.17 928.5,-339.33 928.5,-339.33 928.5,-331.67 928.5,-331.67 928.5,-327.83 932.33,-324 936.17,-324 936.17,-324 1210.83,-324 1210.83,-324 1214.67,-324 1218.5,-327.83 1218.5,-331.67 1218.5,-331.67 1218.5,-339.33 1218.5,-339.33 1218.5,-343.17 1214.67,-347 1210.83,-347"/>
<text text-anchor="middle" x="1073.5" y="-331.8" font-family="Arial" font-size="14.00" fill="#c6c5fe">examples/2&#45;login&#45;screen/FacebookLogin.js</text>
</g>
<!-- example&#45;list.js&#45;&gt;examples/2&#45;login&#45;screen/FacebookLogin.js -->
<g id="edge4" class="edge">
<title>example&#45;list.js&#45;&gt;examples/2&#45;login&#45;screen/FacebookLogin.js</title>
<path fill="none" stroke="#757575" d="M200.38,-238.49C212.11,-239.16 224.48,-239.85 236,-240.5 371.55,-248.11 718.86,-226.88 846,-274.5 864.98,-281.61 863.46,-294.3 882,-302.5 901.02,-310.91 921.98,-317.18 942.84,-321.85"/>
<polygon fill="#757575" stroke="#757575" points="942.23,-325.3 952.73,-323.96 943.68,-318.45 942.23,-325.3"/>
</g>
<!-- examples/4&#45;register&#45;form/RegisterFormTabs.js -->
<g id="node8" class="node">
<title>examples/4&#45;register&#45;form/RegisterFormTabs.js</title>
<path fill="none" stroke="#c6c5fe" d="M838.33,-386C838.33,-386 539.67,-386 539.67,-386 535.83,-386 532,-382.17 532,-378.33 532,-378.33 532,-370.67 532,-370.67 532,-366.83 535.83,-363 539.67,-363 539.67,-363 838.33,-363 838.33,-363 842.17,-363 846,-366.83 846,-370.67 846,-370.67 846,-378.33 846,-378.33 846,-382.17 842.17,-386 838.33,-386"/>
<text text-anchor="middle" x="689" y="-370.8" font-family="Arial" font-size="14.00" fill="#c6c5fe">examples/4&#45;register&#45;form/RegisterFormTabs.js</text>
</g>
<!-- example&#45;list.js&#45;&gt;examples/4&#45;register&#45;form/RegisterFormTabs.js -->
<g id="edge5" class="edge">
<title>example&#45;list.js&#45;&gt;examples/4&#45;register&#45;form/RegisterFormTabs.js</title>
<path fill="none" stroke="#757575" d="M156.35,-247.14C170.82,-265.19 201.4,-299.53 236,-315.5 324.82,-356.49 433.25,-371.65 521.64,-376.37"/>
<polygon fill="#757575" stroke="#757575" points="521.61,-379.87 531.77,-376.87 521.96,-372.88 521.61,-379.87"/>
</g>
<!-- examples/8&#45;stopwatch/StopWatch.js -->
<g id="node9" class="node">
<title>examples/8&#45;stopwatch/StopWatch.js</title>
<path fill="none" stroke="#c6c5fe" d="M481.83,-83C481.83,-83 250.17,-83 250.17,-83 246.33,-83 242.5,-79.17 242.5,-75.33 242.5,-75.33 242.5,-67.67 242.5,-67.67 242.5,-63.83 246.33,-60 250.17,-60 250.17,-60 481.83,-60 481.83,-60 485.67,-60 489.5,-63.83 489.5,-67.67 489.5,-67.67 489.5,-75.33 489.5,-75.33 489.5,-79.17 485.67,-83 481.83,-83"/>
<text text-anchor="middle" x="366" y="-67.8" font-family="Arial" font-size="14.00" fill="#c6c5fe">examples/8&#45;stopwatch/StopWatch.js</text>
</g>
<!-- example&#45;list.js&#45;&gt;examples/8&#45;stopwatch/StopWatch.js -->
<g id="edge6" class="edge">
<title>example&#45;list.js&#45;&gt;examples/8&#45;stopwatch/StopWatch.js</title>
<path fill="none" stroke="#757575" d="M158.64,-223.92C174.87,-207.36 206.31,-176.39 236,-153.5 268.34,-128.57 308.4,-103.99 335.22,-88.34"/>
<polygon fill="#757575" stroke="#757575" points="337.22,-91.23 344.12,-83.19 333.72,-85.17 337.22,-91.23"/>
</g>
<!-- examples/9&#45;bmi&#45;calculator/BMICalculator.js -->
<g id="node10" class="node">
<title>examples/9&#45;bmi&#45;calculator/BMICalculator.js</title>
<path fill="none" stroke="#c6c5fe" d="M825.83,-226C825.83,-226 552.17,-226 552.17,-226 548.33,-226 544.5,-222.17 544.5,-218.33 544.5,-218.33 544.5,-210.67 544.5,-210.67 544.5,-206.83 548.33,-203 552.17,-203 552.17,-203 825.83,-203 825.83,-203 829.67,-203 833.5,-206.83 833.5,-210.67 833.5,-210.67 833.5,-218.33 833.5,-218.33 833.5,-222.17 829.67,-226 825.83,-226"/>
<text text-anchor="middle" x="689" y="-210.8" font-family="Arial" font-size="14.00" fill="#c6c5fe">examples/9&#45;bmi&#45;calculator/BMICalculator.js</text>
</g>
<!-- example&#45;list.js&#45;&gt;examples/9&#45;bmi&#45;calculator/BMICalculator.js -->
<g id="edge7" class="edge">
<title>example&#45;list.js&#45;&gt;examples/9&#45;bmi&#45;calculator/BMICalculator.js</title>
<path fill="none" stroke="#757575" d="M200.31,-233.45C276.96,-230.47 422.1,-224.83 534.2,-220.48"/>
<polygon fill="#757575" stroke="#757575" points="534.4,-223.97 544.25,-220.08 534.13,-216.98 534.4,-223.97"/>
</g>
<!-- assets/bmi&#45;calculator/slider&#45;thumb&#45;image.png -->
<g id="node3" class="node">
<title>assets/bmi&#45;calculator/slider&#45;thumb&#45;image.png</title>
<path fill="none" stroke="#cfffac" d="M1639.83,-265C1639.83,-265 1352.17,-265 1352.17,-265 1348.33,-265 1344.5,-261.17 1344.5,-257.33 1344.5,-257.33 1344.5,-249.67 1344.5,-249.67 1344.5,-245.83 1348.33,-242 1352.17,-242 1352.17,-242 1639.83,-242 1639.83,-242 1643.67,-242 1647.5,-245.83 1647.5,-249.67 1647.5,-249.67 1647.5,-257.33 1647.5,-257.33 1647.5,-261.17 1643.67,-265 1639.83,-265"/>
<text text-anchor="middle" x="1496" y="-249.8" font-family="Arial" font-size="14.00" fill="#cfffac">assets/bmi&#45;calculator/slider&#45;thumb&#45;image.png</text>
</g>
<!-- assets/login&#45;page/facebook&#45;banner.jpg -->
<g id="node4" class="node">
<title>assets/login&#45;page/facebook&#45;banner.jpg</title>
<path fill="none" stroke="#cfffac" d="M1619.83,-347C1619.83,-347 1372.17,-347 1372.17,-347 1368.33,-347 1364.5,-343.17 1364.5,-339.33 1364.5,-339.33 1364.5,-331.67 1364.5,-331.67 1364.5,-327.83 1368.33,-324 1372.17,-324 1372.17,-324 1619.83,-324 1619.83,-324 1623.67,-324 1627.5,-327.83 1627.5,-331.67 1627.5,-331.67 1627.5,-339.33 1627.5,-339.33 1627.5,-343.17 1623.67,-347 1619.83,-347"/>
<text text-anchor="middle" x="1496" y="-331.8" font-family="Arial" font-size="14.00" fill="#cfffac">assets/login&#45;page/facebook&#45;banner.jpg</text>
</g>
<!-- examples/1&#45;hello&#45;world/HelloWorld2.js&#45;&gt;examples/2&#45;login&#45;screen/FacebookLogin.js -->
<g id="edge9" class="edge">
<title>examples/1&#45;hello&#45;world/HelloWorld2.js&#45;&gt;examples/2&#45;login&#45;screen/FacebookLogin.js</title>
<path fill="none" stroke="#757575" d="M446.16,-306.04C473.32,-309.61 503.94,-313.2 532,-315.5 662,-326.16 810.07,-331.14 918.31,-333.46"/>
<polygon fill="#757575" stroke="#757575" points="918.26,-336.96 928.33,-333.67 918.41,-329.96 918.26,-336.96"/>
</g>
<!-- examples/1&#45;hello&#45;world/HelloWorld2.js&#45;&gt;examples/4&#45;register&#45;form/RegisterFormTabs.js -->
<g id="edge10" class="edge">
<title>examples/1&#45;hello&#45;world/HelloWorld2.js&#45;&gt;examples/4&#45;register&#45;form/RegisterFormTabs.js</title>
<path fill="none" stroke="#757575" d="M397.61,-306.06C430.44,-318.1 484.29,-336.79 532,-348.5 552.05,-353.42 573.78,-357.7 594.48,-361.28"/>
<polygon fill="#757575" stroke="#757575" points="594.1,-364.76 604.54,-362.98 595.26,-357.86 594.1,-364.76"/>
</g>
<!-- examples/1&#45;hello&#45;world/HelloWorld2.js&#45;&gt;examples/9&#45;bmi&#45;calculator/BMICalculator.js -->
<g id="edge11" class="edge">
<title>examples/1&#45;hello&#45;world/HelloWorld2.js&#45;&gt;examples/9&#45;bmi&#45;calculator/BMICalculator.js</title>
<path fill="none" stroke="#757575" d="M413.33,-282.95C471.06,-268.57 569.64,-244 631.67,-228.54"/>
<polygon fill="#757575" stroke="#757575" points="632.82,-231.86 641.68,-226.04 631.13,-225.07 632.82,-231.86"/>
</g>
<!-- examples/1&#45;hello&#45;world/HelloWorld1.js -->
<g id="node11" class="node">
<title>examples/1&#45;hello&#45;world/HelloWorld1.js</title>
<path fill="none" stroke="#cfffac" d="M811.33,-306C811.33,-306 566.67,-306 566.67,-306 562.83,-306 559,-302.17 559,-298.33 559,-298.33 559,-290.67 559,-290.67 559,-286.83 562.83,-283 566.67,-283 566.67,-283 811.33,-283 811.33,-283 815.17,-283 819,-286.83 819,-290.67 819,-290.67 819,-298.33 819,-298.33 819,-302.17 815.17,-306 811.33,-306"/>
<text text-anchor="middle" x="689" y="-290.8" font-family="Arial" font-size="14.00" fill="#cfffac">examples/1&#45;hello&#45;world/HelloWorld1.js</text>
</g>
<!-- examples/1&#45;hello&#45;world/HelloWorld2.js&#45;&gt;examples/1&#45;hello&#45;world/HelloWorld1.js -->
<g id="edge8" class="edge">
<title>examples/1&#45;hello&#45;world/HelloWorld2.js&#45;&gt;examples/1&#45;hello&#45;world/HelloWorld1.js</title>
<path fill="none" stroke="#757575" d="M496.18,-294.5C513.43,-294.5 531.19,-294.5 548.62,-294.5"/>
<polygon fill="#757575" stroke="#757575" points="548.83,-298 558.83,-294.5 548.83,-291 548.83,-298"/>
</g>
<!-- examples/11&#45;news/Article.js -->
<g id="node12" class="node">
<title>examples/11&#45;news/Article.js</title>
<path fill="none" stroke="#cfffac" d="M778.33,-185C778.33,-185 599.67,-185 599.67,-185 595.83,-185 592,-181.17 592,-177.33 592,-177.33 592,-169.67 592,-169.67 592,-165.83 595.83,-162 599.67,-162 599.67,-162 778.33,-162 778.33,-162 782.17,-162 786,-165.83 786,-169.67 786,-169.67 786,-177.33 786,-177.33 786,-181.17 782.17,-185 778.33,-185"/>
<text text-anchor="middle" x="689" y="-169.8" font-family="Arial" font-size="14.00" fill="#cfffac">examples/11&#45;news/Article.js</text>
</g>
<!-- examples/11&#45;news/WorldwideNews.js&#45;&gt;examples/11&#45;news/Article.js -->
<g id="edge12" class="edge">
<title>examples/11&#45;news/WorldwideNews.js&#45;&gt;examples/11&#45;news/Article.js</title>
<path fill="none" stroke="#757575" d="M494.79,-173.5C523.6,-173.5 553.87,-173.5 581.69,-173.5"/>
<polygon fill="#757575" stroke="#757575" points="581.82,-177 591.82,-173.5 581.82,-170 581.82,-177"/>
</g>
<!-- examples/11&#45;news/apis.js -->
<g id="node13" class="node">
<title>examples/11&#45;news/apis.js</title>
<path fill="none" stroke="#cfffac" d="M771.33,-144C771.33,-144 606.67,-144 606.67,-144 602.83,-144 599,-140.17 599,-136.33 599,-136.33 599,-128.67 599,-128.67 599,-124.83 602.83,-121 606.67,-121 606.67,-121 771.33,-121 771.33,-121 775.17,-121 779,-124.83 779,-128.67 779,-128.67 779,-136.33 779,-136.33 779,-140.17 775.17,-144 771.33,-144"/>
<text text-anchor="middle" x="689" y="-128.8" font-family="Arial" font-size="14.00" fill="#cfffac">examples/11&#45;news/apis.js</text>
</g>
<!-- examples/11&#45;news/WorldwideNews.js&#45;&gt;examples/11&#45;news/apis.js -->
<g id="edge13" class="edge">
<title>examples/11&#45;news/WorldwideNews.js&#45;&gt;examples/11&#45;news/apis.js</title>
<path fill="none" stroke="#757575" d="M457.27,-161.97C498.3,-156.73 546.96,-150.51 588.99,-145.15"/>
<polygon fill="#757575" stroke="#757575" points="589.49,-148.61 598.96,-143.87 588.6,-141.67 589.49,-148.61"/>
</g>
<!-- examples/2&#45;login&#45;screen/FacebookLogin.js&#45;&gt;assets/login&#45;page/facebook&#45;banner.jpg -->
<g id="edge14" class="edge">
<title>examples/2&#45;login&#45;screen/FacebookLogin.js&#45;&gt;assets/login&#45;page/facebook&#45;banner.jpg</title>
<path fill="none" stroke="#757575" d="M1218.62,-335.5C1262.52,-335.5 1310.69,-335.5 1354.35,-335.5"/>
<polygon fill="#757575" stroke="#757575" points="1354.47,-339 1364.47,-335.5 1354.47,-332 1354.47,-339"/>
</g>
<!-- examples/4&#45;register&#45;form/RegisterFormTabs.js&#45;&gt;examples/2&#45;login&#45;screen/FacebookLogin.js -->
<g id="edge19" class="edge">
<title>examples/4&#45;register&#45;form/RegisterFormTabs.js&#45;&gt;examples/2&#45;login&#45;screen/FacebookLogin.js</title>
<path fill="none" stroke="#757575" d="M802.95,-362.98C848.93,-358.3 902.21,-352.86 949.2,-348.07"/>
<polygon fill="#757575" stroke="#757575" points="949.84,-351.52 959.44,-347.03 949.13,-344.56 949.84,-351.52"/>
</g>
<!-- examples/4&#45;register&#45;form/styles.js -->
<g id="node15" class="node">
<title>examples/4&#45;register&#45;form/styles.js</title>
<path fill="none" stroke="#cfffac" d="M1950.33,-469C1950.33,-469 1734.67,-469 1734.67,-469 1730.83,-469 1727,-465.17 1727,-461.33 1727,-461.33 1727,-453.67 1727,-453.67 1727,-449.83 1730.83,-446 1734.67,-446 1734.67,-446 1950.33,-446 1950.33,-446 1954.17,-446 1958,-449.83 1958,-453.67 1958,-453.67 1958,-461.33 1958,-461.33 1958,-465.17 1954.17,-469 1950.33,-469"/>
<text text-anchor="middle" x="1842.5" y="-453.8" font-family="Arial" font-size="14.00" fill="#cfffac">examples/4&#45;register&#45;form/styles.js</text>
</g>
<!-- examples/4&#45;register&#45;form/RegisterFormTabs.js&#45;&gt;examples/4&#45;register&#45;form/styles.js -->
<g id="edge21" class="edge">
<title>examples/4&#45;register&#45;form/RegisterFormTabs.js&#45;&gt;examples/4&#45;register&#45;form/styles.js</title>
<path fill="none" stroke="#757575" d="M734.71,-386.06C773.45,-395.7 831.1,-409.16 882,-417.5 1237.34,-475.75 1330.94,-466.28 1691,-461.5 1699.36,-461.39 1707.98,-461.24 1716.66,-461.07"/>
<polygon fill="#757575" stroke="#757575" points="1716.95,-464.57 1726.88,-460.86 1716.81,-457.57 1716.95,-464.57"/>
</g>
<!-- examples/4&#45;register&#45;form/RegisterForm.js -->
<g id="node16" class="node">
<title>examples/4&#45;register&#45;form/RegisterForm.js</title>
<path fill="none" stroke="#c6c5fe" d="M1206.83,-408C1206.83,-408 940.17,-408 940.17,-408 936.33,-408 932.5,-404.17 932.5,-400.33 932.5,-400.33 932.5,-392.67 932.5,-392.67 932.5,-388.83 936.33,-385 940.17,-385 940.17,-385 1206.83,-385 1206.83,-385 1210.67,-385 1214.5,-388.83 1214.5,-392.67 1214.5,-392.67 1214.5,-400.33 1214.5,-400.33 1214.5,-404.17 1210.67,-408 1206.83,-408"/>
<text text-anchor="middle" x="1073.5" y="-392.8" font-family="Arial" font-size="14.00" fill="#c6c5fe">examples/4&#45;register&#45;form/RegisterForm.js</text>
</g>
<!-- examples/4&#45;register&#45;form/RegisterFormTabs.js&#45;&gt;examples/4&#45;register&#45;form/RegisterForm.js -->
<g id="edge20" class="edge">
<title>examples/4&#45;register&#45;form/RegisterFormTabs.js&#45;&gt;examples/4&#45;register&#45;form/RegisterForm.js</title>
<path fill="none" stroke="#757575" d="M846.13,-383.48C871.18,-384.92 897.07,-386.41 921.99,-387.84"/>
<polygon fill="#757575" stroke="#757575" points="922.05,-391.35 932.23,-388.43 922.45,-384.36 922.05,-391.35"/>
</g>
<!-- examples/8&#45;stopwatch/Control.js -->
<g id="node18" class="node">
<title>examples/8&#45;stopwatch/Control.js</title>
<path fill="none" stroke="#cfffac" d="M792.33,-103C792.33,-103 585.67,-103 585.67,-103 581.83,-103 578,-99.17 578,-95.33 578,-95.33 578,-87.67 578,-87.67 578,-83.83 581.83,-80 585.67,-80 585.67,-80 792.33,-80 792.33,-80 796.17,-80 800,-83.83 800,-87.67 800,-87.67 800,-95.33 800,-95.33 800,-99.17 796.17,-103 792.33,-103"/>
<text text-anchor="middle" x="689" y="-87.8" font-family="Arial" font-size="14.00" fill="#cfffac">examples/8&#45;stopwatch/Control.js</text>
</g>
<!-- examples/8&#45;stopwatch/StopWatch.js&#45;&gt;examples/8&#45;stopwatch/Control.js -->
<g id="edge23" class="edge">
<title>examples/8&#45;stopwatch/StopWatch.js&#45;&gt;examples/8&#45;stopwatch/Control.js</title>
<path fill="none" stroke="#757575" d="M489.73,-79.15C515.36,-80.74 542.34,-82.42 567.87,-84.02"/>
<polygon fill="#757575" stroke="#757575" points="567.76,-87.51 577.95,-84.64 568.19,-80.53 567.76,-87.51"/>
</g>
<!-- examples/8&#45;stopwatch/Result.js -->
<g id="node19" class="node">
<title>examples/8&#45;stopwatch/Result.js</title>
<path fill="none" stroke="#c6c5fe" d="M789.83,-23C789.83,-23 588.17,-23 588.17,-23 584.33,-23 580.5,-19.17 580.5,-15.33 580.5,-15.33 580.5,-7.67 580.5,-7.67 580.5,-3.83 584.33,0 588.17,0 588.17,0 789.83,0 789.83,0 793.67,0 797.5,-3.83 797.5,-7.67 797.5,-7.67 797.5,-15.33 797.5,-15.33 797.5,-19.17 793.67,-23 789.83,-23"/>
<text text-anchor="middle" x="689" y="-7.8" font-family="Arial" font-size="14.00" fill="#c6c5fe">examples/8&#45;stopwatch/Result.js</text>
</g>
<!-- examples/8&#45;stopwatch/StopWatch.js&#45;&gt;examples/8&#45;stopwatch/Result.js -->
<g id="edge24" class="edge">
<title>examples/8&#45;stopwatch/StopWatch.js&#45;&gt;examples/8&#45;stopwatch/Result.js</title>
<path fill="none" stroke="#757575" d="M420.4,-59.96C452.66,-53.12 494.62,-44.46 532,-37.5 555.74,-33.08 581.57,-28.63 605.27,-24.69"/>
<polygon fill="#757575" stroke="#757575" points="605.98,-28.12 615.28,-23.03 604.84,-21.21 605.98,-28.12"/>
</g>
<!-- examples/8&#45;stopwatch/util.js -->
<g id="node20" class="node">
<title>examples/8&#45;stopwatch/util.js</title>
<path fill="none" stroke="#cfffac" d="M1162.83,-25C1162.83,-25 984.17,-25 984.17,-25 980.33,-25 976.5,-21.17 976.5,-17.33 976.5,-17.33 976.5,-9.67 976.5,-9.67 976.5,-5.83 980.33,-2 984.17,-2 984.17,-2 1162.83,-2 1162.83,-2 1166.67,-2 1170.5,-5.83 1170.5,-9.67 1170.5,-9.67 1170.5,-17.33 1170.5,-17.33 1170.5,-21.17 1166.67,-25 1162.83,-25"/>
<text text-anchor="middle" x="1073.5" y="-9.8" font-family="Arial" font-size="14.00" fill="#cfffac">examples/8&#45;stopwatch/util.js</text>
</g>
<!-- examples/8&#45;stopwatch/StopWatch.js&#45;&gt;examples/8&#45;stopwatch/util.js -->
<g id="edge25" class="edge">
<title>examples/8&#45;stopwatch/StopWatch.js&#45;&gt;examples/8&#45;stopwatch/util.js</title>
<path fill="none" stroke="#757575" d="M489.89,-61.4C624.61,-50.32 838.57,-32.73 966.29,-22.23"/>
<polygon fill="#757575" stroke="#757575" points="966.79,-25.7 976.47,-21.39 966.22,-18.73 966.79,-25.7"/>
</g>
<!-- examples/9&#45;bmi&#45;calculator/components/Button.js -->
<g id="node21" class="node">
<title>examples/9&#45;bmi&#45;calculator/components/Button.js</title>
<path fill="none" stroke="#c6c5fe" d="M1649.83,-147C1649.83,-147 1342.17,-147 1342.17,-147 1338.33,-147 1334.5,-143.17 1334.5,-139.33 1334.5,-139.33 1334.5,-131.67 1334.5,-131.67 1334.5,-127.83 1338.33,-124 1342.17,-124 1342.17,-124 1649.83,-124 1649.83,-124 1653.67,-124 1657.5,-127.83 1657.5,-131.67 1657.5,-131.67 1657.5,-139.33 1657.5,-139.33 1657.5,-143.17 1653.67,-147 1649.83,-147"/>
<text text-anchor="middle" x="1496" y="-131.8" font-family="Arial" font-size="14.00" fill="#c6c5fe">examples/9&#45;bmi&#45;calculator/components/Button.js</text>
</g>
<!-- examples/9&#45;bmi&#45;calculator/BMICalculator.js&#45;&gt;examples/9&#45;bmi&#45;calculator/components/Button.js -->
<g id="edge26" class="edge">
<title>examples/9&#45;bmi&#45;calculator/BMICalculator.js&#45;&gt;examples/9&#45;bmi&#45;calculator/components/Button.js</title>
<path fill="none" stroke="#757575" d="M787.14,-202.96C817.5,-199.46 851.13,-195.7 882,-192.5 1042.96,-175.8 1227.93,-158.91 1352.23,-147.91"/>
<polygon fill="#757575" stroke="#757575" points="1352.54,-151.39 1362.19,-147.03 1351.92,-144.42 1352.54,-151.39"/>
</g>
<!-- examples/9&#45;bmi&#45;calculator/components/GenderSelection.js -->
<g id="node22" class="node">
<title>examples/9&#45;bmi&#45;calculator/components/GenderSelection.js</title>
<path fill="none" stroke="#c6c5fe" d="M1683.33,-306C1683.33,-306 1308.67,-306 1308.67,-306 1304.83,-306 1301,-302.17 1301,-298.33 1301,-298.33 1301,-290.67 1301,-290.67 1301,-286.83 1304.83,-283 1308.67,-283 1308.67,-283 1683.33,-283 1683.33,-283 1687.17,-283 1691,-286.83 1691,-290.67 1691,-290.67 1691,-298.33 1691,-298.33 1691,-302.17 1687.17,-306 1683.33,-306"/>
<text text-anchor="middle" x="1496" y="-290.8" font-family="Arial" font-size="14.00" fill="#c6c5fe">examples/9&#45;bmi&#45;calculator/components/GenderSelection.js</text>
</g>
<!-- examples/9&#45;bmi&#45;calculator/BMICalculator.js&#45;&gt;examples/9&#45;bmi&#45;calculator/components/GenderSelection.js -->
<g id="edge27" class="edge">
<title>examples/9&#45;bmi&#45;calculator/BMICalculator.js&#45;&gt;examples/9&#45;bmi&#45;calculator/components/GenderSelection.js</title>
<path fill="none" stroke="#757575" d="M806.59,-226.05C820.26,-229.68 833.7,-234.39 846,-240.5 865.71,-250.29 861.68,-266.04 882,-274.5 953.46,-304.27 1141.51,-306.67 1290.65,-303.19"/>
<polygon fill="#757575" stroke="#757575" points="1290.96,-306.69 1300.87,-302.95 1290.79,-299.69 1290.96,-306.69"/>
</g>
<!-- examples/9&#45;bmi&#45;calculator/components/HeightSelection.js -->
<g id="node23" class="node">
<title>examples/9&#45;bmi&#45;calculator/components/HeightSelection.js</title>
<path fill="none" stroke="#c6c5fe" d="M1257.33,-265C1257.33,-265 889.67,-265 889.67,-265 885.83,-265 882,-261.17 882,-257.33 882,-257.33 882,-249.67 882,-249.67 882,-245.83 885.83,-242 889.67,-242 889.67,-242 1257.33,-242 1257.33,-242 1261.17,-242 1265,-245.83 1265,-249.67 1265,-249.67 1265,-257.33 1265,-257.33 1265,-261.17 1261.17,-265 1257.33,-265"/>
<text text-anchor="middle" x="1073.5" y="-249.8" font-family="Arial" font-size="14.00" fill="#c6c5fe">examples/9&#45;bmi&#45;calculator/components/HeightSelection.js</text>
</g>
<!-- examples/9&#45;bmi&#45;calculator/BMICalculator.js&#45;&gt;examples/9&#45;bmi&#45;calculator/components/HeightSelection.js -->
<g id="edge28" class="edge">
<title>examples/9&#45;bmi&#45;calculator/BMICalculator.js&#45;&gt;examples/9&#45;bmi&#45;calculator/components/HeightSelection.js</title>
<path fill="none" stroke="#757575" d="M802.95,-226.02C848.93,-230.7 902.21,-236.14 949.2,-240.93"/>
<polygon fill="#757575" stroke="#757575" points="949.13,-244.44 959.44,-241.97 949.84,-237.48 949.13,-244.44"/>
</g>
<!-- examples/9&#45;bmi&#45;calculator/components/ResultModal.js -->
<g id="node24" class="node">
<title>examples/9&#45;bmi&#45;calculator/components/ResultModal.js</title>
<path fill="none" stroke="#c6c5fe" d="M1246.83,-224C1246.83,-224 900.17,-224 900.17,-224 896.33,-224 892.5,-220.17 892.5,-216.33 892.5,-216.33 892.5,-208.67 892.5,-208.67 892.5,-204.83 896.33,-201 900.17,-201 900.17,-201 1246.83,-201 1246.83,-201 1250.67,-201 1254.5,-204.83 1254.5,-208.67 1254.5,-208.67 1254.5,-216.33 1254.5,-216.33 1254.5,-220.17 1250.67,-224 1246.83,-224"/>
<text text-anchor="middle" x="1073.5" y="-208.8" font-family="Arial" font-size="14.00" fill="#c6c5fe">examples/9&#45;bmi&#45;calculator/components/ResultModal.js</text>
</g>
<!-- examples/9&#45;bmi&#45;calculator/BMICalculator.js&#45;&gt;examples/9&#45;bmi&#45;calculator/components/ResultModal.js -->
<g id="edge29" class="edge">
<title>examples/9&#45;bmi&#45;calculator/BMICalculator.js&#45;&gt;examples/9&#45;bmi&#45;calculator/components/ResultModal.js</title>
<path fill="none" stroke="#757575" d="M833.52,-213.75C849.4,-213.67 865.76,-213.58 882.11,-213.5"/>
<polygon fill="#757575" stroke="#757575" points="882.3,-216.99 892.28,-213.44 882.26,-209.99 882.3,-216.99"/>
</g>
<!-- examples/9&#45;bmi&#45;calculator/components/UnitSelection.js -->
<g id="node25" class="node">
<title>examples/9&#45;bmi&#45;calculator/components/UnitSelection.js</title>
<path fill="none" stroke="#c6c5fe" d="M1671.33,-106C1671.33,-106 1320.67,-106 1320.67,-106 1316.83,-106 1313,-102.17 1313,-98.33 1313,-98.33 1313,-90.67 1313,-90.67 1313,-86.83 1316.83,-83 1320.67,-83 1320.67,-83 1671.33,-83 1671.33,-83 1675.17,-83 1679,-86.83 1679,-90.67 1679,-90.67 1679,-98.33 1679,-98.33 1679,-102.17 1675.17,-106 1671.33,-106"/>
<text text-anchor="middle" x="1496" y="-90.8" font-family="Arial" font-size="14.00" fill="#c6c5fe">examples/9&#45;bmi&#45;calculator/components/UnitSelection.js</text>
</g>
<!-- examples/9&#45;bmi&#45;calculator/BMICalculator.js&#45;&gt;examples/9&#45;bmi&#45;calculator/components/UnitSelection.js -->
<g id="edge30" class="edge">
<title>examples/9&#45;bmi&#45;calculator/BMICalculator.js&#45;&gt;examples/9&#45;bmi&#45;calculator/components/UnitSelection.js</title>
<path fill="none" stroke="#757575" d="M832.51,-203C837.22,-200.51 841.74,-197.69 846,-194.5 877.87,-170.66 849,-134.75 882,-112.5 957.31,-61.72 1204.55,-70.64 1361.08,-82.23"/>
<polygon fill="#757575" stroke="#757575" points="1361.02,-85.73 1371.26,-83 1361.55,-78.75 1361.02,-85.73"/>
</g>
<!-- examples/9&#45;bmi&#45;calculator/const.js -->
<g id="node26" class="node">
<title>examples/9&#45;bmi&#45;calculator/const.js</title>
<path fill="none" stroke="#cfffac" d="M1183.33,-144C1183.33,-144 963.67,-144 963.67,-144 959.83,-144 956,-140.17 956,-136.33 956,-136.33 956,-128.67 956,-128.67 956,-124.83 959.83,-121 963.67,-121 963.67,-121 1183.33,-121 1183.33,-121 1187.17,-121 1191,-124.83 1191,-128.67 1191,-128.67 1191,-136.33 1191,-136.33 1191,-140.17 1187.17,-144 1183.33,-144"/>
<text text-anchor="middle" x="1073.5" y="-128.8" font-family="Arial" font-size="14.00" fill="#cfffac">examples/9&#45;bmi&#45;calculator/const.js</text>
</g>
<!-- examples/9&#45;bmi&#45;calculator/BMICalculator.js&#45;&gt;examples/9&#45;bmi&#45;calculator/const.js -->
<g id="edge31" class="edge">
<title>examples/9&#45;bmi&#45;calculator/BMICalculator.js&#45;&gt;examples/9&#45;bmi&#45;calculator/const.js</title>
<path fill="none" stroke="#757575" d="M825.27,-202.92C832.43,-200.54 839.38,-197.75 846,-194.5 866.31,-184.53 861.73,-168.56 882,-158.5 901.64,-148.76 923.75,-142.3 945.76,-138.09"/>
<polygon fill="#757575" stroke="#757575" points="946.62,-141.49 955.86,-136.31 945.4,-134.6 946.62,-141.49"/>
</g>
<!-- examples/9&#45;bmi&#45;calculator/style.js -->
<g id="node27" class="node">
<title>examples/9&#45;bmi&#45;calculator/style.js</title>
<path fill="none" stroke="#cfffac" d="M1949.83,-167C1949.83,-167 1735.17,-167 1735.17,-167 1731.33,-167 1727.5,-163.17 1727.5,-159.33 1727.5,-159.33 1727.5,-151.67 1727.5,-151.67 1727.5,-147.83 1731.33,-144 1735.17,-144 1735.17,-144 1949.83,-144 1949.83,-144 1953.67,-144 1957.5,-147.83 1957.5,-151.67 1957.5,-151.67 1957.5,-159.33 1957.5,-159.33 1957.5,-163.17 1953.67,-167 1949.83,-167"/>
<text text-anchor="middle" x="1842.5" y="-151.8" font-family="Arial" font-size="14.00" fill="#cfffac">examples/9&#45;bmi&#45;calculator/style.js</text>
</g>
<!-- examples/9&#45;bmi&#45;calculator/BMICalculator.js&#45;&gt;examples/9&#45;bmi&#45;calculator/style.js -->
<g id="edge32" class="edge">
<title>examples/9&#45;bmi&#45;calculator/BMICalculator.js&#45;&gt;examples/9&#45;bmi&#45;calculator/style.js</title>
<path fill="none" stroke="#757575" d="M833.78,-203.3C838.08,-200.71 842.17,-197.79 846,-194.5 890.17,-156.54 835.5,-103.57 882,-68.5 900.54,-54.52 1671.14,-69.34 1691,-74.5 1739.2,-87.01 1788.89,-117.93 1817.4,-137.75"/>
<polygon fill="#757575" stroke="#757575" points="1815.69,-140.83 1825.88,-143.75 1819.74,-135.12 1815.69,-140.83"/>
</g>
<!-- examples/4&#45;register&#45;form/FormField.js -->
<g id="node14" class="node">
<title>examples/4&#45;register&#45;form/FormField.js</title>
<path fill="none" stroke="#c6c5fe" d="M1618.33,-388C1618.33,-388 1373.67,-388 1373.67,-388 1369.83,-388 1366,-384.17 1366,-380.33 1366,-380.33 1366,-372.67 1366,-372.67 1366,-368.83 1369.83,-365 1373.67,-365 1373.67,-365 1618.33,-365 1618.33,-365 1622.17,-365 1626,-368.83 1626,-372.67 1626,-372.67 1626,-380.33 1626,-380.33 1626,-384.17 1622.17,-388 1618.33,-388"/>
<text text-anchor="middle" x="1496" y="-372.8" font-family="Arial" font-size="14.00" fill="#c6c5fe">examples/4&#45;register&#45;form/FormField.js</text>
</g>
<!-- examples/4&#45;register&#45;form/FormField.js&#45;&gt;examples/4&#45;register&#45;form/styles.js -->
<g id="edge15" class="edge">
<title>examples/4&#45;register&#45;form/FormField.js&#45;&gt;examples/4&#45;register&#45;form/styles.js</title>
<path fill="none" stroke="#757575" d="M1626.22,-385.53C1648.02,-388.47 1670.29,-392.35 1691,-397.5 1733.12,-407.97 1779.14,-427.61 1809.06,-441.57"/>
<polygon fill="#757575" stroke="#757575" points="1807.64,-444.78 1818.18,-445.89 1810.64,-438.45 1807.64,-444.78"/>
</g>
<!-- examples/4&#45;register&#45;form/RegisterForm.js&#45;&gt;examples/4&#45;register&#45;form/FormField.js -->
<g id="edge16" class="edge">
<title>examples/4&#45;register&#45;form/RegisterForm.js&#45;&gt;examples/4&#45;register&#45;form/FormField.js</title>
<path fill="none" stroke="#757575" d="M1214.52,-389.84C1259.94,-387.68 1310.31,-385.28 1355.68,-383.13"/>
<polygon fill="#757575" stroke="#757575" points="1356.06,-386.61 1365.88,-382.64 1355.73,-379.62 1356.06,-386.61"/>
</g>
<!-- examples/4&#45;register&#45;form/RegisterForm.js&#45;&gt;examples/4&#45;register&#45;form/styles.js -->
<g id="edge17" class="edge">
<title>examples/4&#45;register&#45;form/RegisterForm.js&#45;&gt;examples/4&#45;register&#45;form/styles.js</title>
<path fill="none" stroke="#757575" d="M1125.01,-408.09C1170.7,-418.04 1239.98,-431.81 1301,-438.5 1442.87,-454.06 1606.83,-457.84 1716.62,-458.34"/>
<polygon fill="#757575" stroke="#757575" points="1716.73,-461.85 1726.74,-458.38 1716.75,-454.85 1716.73,-461.85"/>
</g>
<!-- examples/4&#45;register&#45;form/validation.js -->
<g id="node17" class="node">
<title>examples/4&#45;register&#45;form/validation.js</title>
<path fill="none" stroke="#cfffac" d="M1614.83,-429C1614.83,-429 1377.17,-429 1377.17,-429 1373.33,-429 1369.5,-425.17 1369.5,-421.33 1369.5,-421.33 1369.5,-413.67 1369.5,-413.67 1369.5,-409.83 1373.33,-406 1377.17,-406 1377.17,-406 1614.83,-406 1614.83,-406 1618.67,-406 1622.5,-409.83 1622.5,-413.67 1622.5,-413.67 1622.5,-421.33 1622.5,-421.33 1622.5,-425.17 1618.67,-429 1614.83,-429"/>
<text text-anchor="middle" x="1496" y="-413.8" font-family="Arial" font-size="14.00" fill="#cfffac">examples/4&#45;register&#45;form/validation.js</text>
</g>
<!-- examples/4&#45;register&#45;form/RegisterForm.js&#45;&gt;examples/4&#45;register&#45;form/validation.js -->
<g id="edge18" class="edge">
<title>examples/4&#45;register&#45;form/RegisterForm.js&#45;&gt;examples/4&#45;register&#45;form/validation.js</title>
<path fill="none" stroke="#757575" d="M1214.52,-403.49C1261.15,-405.82 1312.99,-408.41 1359.29,-410.72"/>
<polygon fill="#757575" stroke="#757575" points="1359.22,-414.22 1369.39,-411.23 1359.57,-407.23 1359.22,-414.22"/>
</g>
<!-- examples/8&#45;stopwatch/Result.js&#45;&gt;examples/8&#45;stopwatch/util.js -->
<g id="edge22" class="edge">
<title>examples/8&#45;stopwatch/Result.js&#45;&gt;examples/8&#45;stopwatch/util.js</title>
<path fill="none" stroke="#757575" d="M797.57,-12.06C850.4,-12.34 913.84,-12.67 966.46,-12.95"/>
<polygon fill="#757575" stroke="#757575" points="966.48,-16.45 976.5,-13 966.52,-9.45 966.48,-16.45"/>
</g>
<!-- examples/9&#45;bmi&#45;calculator/components/Button.js&#45;&gt;examples/9&#45;bmi&#45;calculator/style.js -->
<g id="edge33" class="edge">
<title>examples/9&#45;bmi&#45;calculator/components/Button.js&#45;&gt;examples/9&#45;bmi&#45;calculator/style.js</title>
<path fill="none" stroke="#757575" d="M1657.65,-144.83C1677.67,-145.99 1697.89,-147.16 1717.24,-148.29"/>
<polygon fill="#757575" stroke="#757575" points="1717.09,-151.78 1727.27,-148.87 1717.49,-144.79 1717.09,-151.78"/>
</g>
<!-- examples/9&#45;bmi&#45;calculator/components/GenderSelection.js&#45;&gt;examples/9&#45;bmi&#45;calculator/style.js -->
<g id="edge34" class="edge">
<title>examples/9&#45;bmi&#45;calculator/components/GenderSelection.js&#45;&gt;examples/9&#45;bmi&#45;calculator/style.js</title>
<path fill="none" stroke="#757575" d="M1666.15,-282.96C1674.67,-280.55 1683,-277.75 1691,-274.5 1746.61,-251.91 1798.51,-202.15 1824.36,-174.67"/>
<polygon fill="#757575" stroke="#757575" points="1827.02,-176.95 1831.23,-167.23 1821.88,-172.2 1827.02,-176.95"/>
</g>
<!-- examples/9&#45;bmi&#45;calculator/components/HeightSelection.js&#45;&gt;assets/bmi&#45;calculator/slider&#45;thumb&#45;image.png -->
<g id="edge35" class="edge">
<title>examples/9&#45;bmi&#45;calculator/components/HeightSelection.js&#45;&gt;assets/bmi&#45;calculator/slider&#45;thumb&#45;image.png</title>
<path fill="none" stroke="#757575" d="M1265.06,-253.5C1288.25,-253.5 1311.76,-253.5 1334.45,-253.5"/>
<polygon fill="#757575" stroke="#757575" points="1334.47,-257 1344.47,-253.5 1334.47,-250 1334.47,-257"/>
</g>
<!-- examples/9&#45;bmi&#45;calculator/components/HeightSelection.js&#45;&gt;examples/9&#45;bmi&#45;calculator/style.js -->
<g id="edge36" class="edge">
<title>examples/9&#45;bmi&#45;calculator/components/HeightSelection.js&#45;&gt;examples/9&#45;bmi&#45;calculator/style.js</title>
<path fill="none" stroke="#757575" d="M1202.57,-242C1376.16,-226.33 1667.35,-199.72 1691,-195.5 1726.51,-189.16 1765.88,-178.56 1795.45,-169.87"/>
<polygon fill="#757575" stroke="#757575" points="1796.49,-173.21 1805.08,-167 1794.5,-166.5 1796.49,-173.21"/>
</g>
<!-- examples/9&#45;bmi&#45;calculator/components/ResultModal.js&#45;&gt;examples/9&#45;bmi&#45;calculator/components/Button.js -->
<g id="edge37" class="edge">
<title>examples/9&#45;bmi&#45;calculator/components/ResultModal.js&#45;&gt;examples/9&#45;bmi&#45;calculator/components/Button.js</title>
<path fill="none" stroke="#757575" d="M1215.32,-200.96C1232.37,-197.33 1249.29,-192.62 1265,-186.5 1283.15,-179.43 1282.84,-168.55 1301,-161.5 1313.68,-156.58 1327.14,-152.56 1340.83,-149.29"/>
<polygon fill="#757575" stroke="#757575" points="1341.84,-152.64 1350.82,-147.03 1340.3,-145.82 1341.84,-152.64"/>
</g>
<!-- examples/9&#45;bmi&#45;calculator/components/ResultModal.js&#45;&gt;examples/9&#45;bmi&#45;calculator/style.js -->
<g id="edge38" class="edge">
<title>examples/9&#45;bmi&#45;calculator/components/ResultModal.js&#45;&gt;examples/9&#45;bmi&#45;calculator/style.js</title>
<path fill="none" stroke="#757575" d="M1229.25,-201C1372.87,-190.33 1583.94,-174.64 1716.97,-164.75"/>
<polygon fill="#757575" stroke="#757575" points="1717.49,-168.23 1727.21,-163.99 1716.98,-161.24 1717.49,-168.23"/>
</g>
<!-- examples/9&#45;bmi&#45;calculator/components/UnitSelection.js&#45;&gt;examples/9&#45;bmi&#45;calculator/style.js -->
<g id="edge39" class="edge">
<title>examples/9&#45;bmi&#45;calculator/components/UnitSelection.js&#45;&gt;examples/9&#45;bmi&#45;calculator/style.js</title>
<path fill="none" stroke="#757575" d="M1628.62,-106.01C1649.57,-108.63 1670.93,-111.77 1691,-115.5 1726.22,-122.05 1765.31,-132.54 1794.82,-141.13"/>
<polygon fill="#757575" stroke="#757575" points="1793.86,-144.5 1804.44,-143.96 1795.84,-137.78 1793.86,-144.5"/>
</g>
</g>
</svg>
