<?xml version="1.0" encoding="UTF-8" standalone="no"?>
<!DOCTYPE svg PUBLIC "-//W3C//DTD SVG 1.1//EN"
 "http://www.w3.org/Graphics/SVG/1.1/DTD/svg11.dtd">
<!-- Generated by graphviz version 2.50.0 (20211204.2007)
 -->
<!-- Title: G Pages: 1 -->
<svg width="1124pt" height="146pt"
 viewBox="0.00 0.00 1124.20 146.20" xmlns="http://www.w3.org/2000/svg" xmlns:xlink="http://www.w3.org/1999/xlink">
<g id="graph0" class="graph" transform="scale(1 1) rotate(0) translate(21.6 124.6)">
<title>G</title>
<polygon fill="#111111" stroke="transparent" points="-21.6,21.6 -21.6,-124.6 1102.6,-124.6 1102.6,21.6 -21.6,21.6"/>
<!-- App.js -->
<g id="node1" class="node">
<title>App.js</title>
<path fill="none" stroke="#c6c5fe" d="M49.33,-63C49.33,-63 7.67,-63 7.67,-63 3.83,-63 0,-59.17 0,-55.33 0,-55.33 0,-47.67 0,-47.67 0,-43.83 3.83,-40 7.67,-40 7.67,-40 49.33,-40 49.33,-40 53.17,-40 57,-43.83 57,-47.67 57,-47.67 57,-55.33 57,-55.33 57,-59.17 53.17,-63 49.33,-63"/>
<text text-anchor="middle" x="28.5" y="-47.8" font-family="Arial" font-size="14.00" fill="#c6c5fe">App.js</text>
</g>
<!-- example&#45;list.js -->
<g id="node2" class="node">
<title>example&#45;list.js</title>
<path fill="none" stroke="#c6c5fe" d="M192.33,-63C192.33,-63 100.67,-63 100.67,-63 96.83,-63 93,-59.17 93,-55.33 93,-55.33 93,-47.67 93,-47.67 93,-43.83 96.83,-40 100.67,-40 100.67,-40 192.33,-40 192.33,-40 196.17,-40 200,-43.83 200,-47.67 200,-47.67 200,-55.33 200,-55.33 200,-59.17 196.17,-63 192.33,-63"/>
<text text-anchor="middle" x="146.5" y="-47.8" font-family="Arial" font-size="14.00" fill="#c6c5fe">example&#45;list.js</text>
</g>
<!-- App.js&#45;&gt;example&#45;list.js -->
<g id="edge1" class="edge">
<title>App.js&#45;&gt;example&#45;list.js</title>
<path fill="none" stroke="#757575" d="M57.28,-51.5C65.08,-51.5 73.88,-51.5 82.83,-51.5"/>
<polygon fill="#757575" stroke="#757575" points="82.95,-55 92.95,-51.5 82.95,-48 82.95,-55"/>
</g>
<!-- examples/4&#45;register&#45;form/RegisterForm.js -->
<g id="node3" class="node">
<title>examples/4&#45;register&#45;form/RegisterForm.js</title>
<path fill="none" stroke="#c6c5fe" d="M510.33,-63C510.33,-63 243.67,-63 243.67,-63 239.83,-63 236,-59.17 236,-55.33 236,-55.33 236,-47.67 236,-47.67 236,-43.83 239.83,-40 243.67,-40 243.67,-40 510.33,-40 510.33,-40 514.17,-40 518,-43.83 518,-47.67 518,-47.67 518,-55.33 518,-55.33 518,-59.17 514.17,-63 510.33,-63"/>
<text text-anchor="middle" x="377" y="-47.8" font-family="Arial" font-size="14.00" fill="#c6c5fe">examples/4&#45;register&#45;form/RegisterForm.js</text>
</g>
<!-- example&#45;list.js&#45;&gt;examples/4&#45;register&#45;form/RegisterForm.js -->
<g id="edge2" class="edge">
<title>example&#45;list.js&#45;&gt;examples/4&#45;register&#45;form/RegisterForm.js</title>
<path fill="none" stroke="#757575" d="M200.21,-51.5C208.16,-51.5 216.67,-51.5 225.51,-51.5"/>
<polygon fill="#757575" stroke="#757575" points="225.61,-55 235.61,-51.5 225.61,-48 225.61,-55"/>
</g>
<!-- examples/4&#45;register&#45;form/FormField.js -->
<g id="node4" class="node">
<title>examples/4&#45;register&#45;form/FormField.js</title>
<path fill="none" stroke="#c6c5fe" d="M806.33,-103C806.33,-103 561.67,-103 561.67,-103 557.83,-103 554,-99.17 554,-95.33 554,-95.33 554,-87.67 554,-87.67 554,-83.83 557.83,-80 561.67,-80 561.67,-80 806.33,-80 806.33,-80 810.17,-80 814,-83.83 814,-87.67 814,-87.67 814,-95.33 814,-95.33 814,-99.17 810.17,-103 806.33,-103"/>
<text text-anchor="middle" x="684" y="-87.8" font-family="Arial" font-size="14.00" fill="#c6c5fe">examples/4&#45;register&#45;form/FormField.js</text>
</g>
<!-- examples/4&#45;register&#45;form/RegisterForm.js&#45;&gt;examples/4&#45;register&#45;form/FormField.js -->
<g id="edge4" class="edge">
<title>examples/4&#45;register&#45;form/RegisterForm.js&#45;&gt;examples/4&#45;register&#45;form/FormField.js</title>
<path fill="none" stroke="#757575" d="M465.81,-63.02C503.13,-67.91 546.79,-73.64 585.14,-78.67"/>
<polygon fill="#757575" stroke="#757575" points="584.91,-82.17 595.28,-80 585.82,-75.23 584.91,-82.17"/>
</g>
<!-- examples/4&#45;register&#45;form/styles.js -->
<g id="node5" class="node">
<title>examples/4&#45;register&#45;form/styles.js</title>
<path fill="none" stroke="#cfffac" d="M1073.33,-83C1073.33,-83 857.67,-83 857.67,-83 853.83,-83 850,-79.17 850,-75.33 850,-75.33 850,-67.67 850,-67.67 850,-63.83 853.83,-60 857.67,-60 857.67,-60 1073.33,-60 1073.33,-60 1077.17,-60 1081,-63.83 1081,-67.67 1081,-67.67 1081,-75.33 1081,-75.33 1081,-79.17 1077.17,-83 1073.33,-83"/>
<text text-anchor="middle" x="965.5" y="-67.8" font-family="Arial" font-size="14.00" fill="#cfffac">examples/4&#45;register&#45;form/styles.js</text>
</g>
<!-- examples/4&#45;register&#45;form/RegisterForm.js&#45;&gt;examples/4&#45;register&#45;form/styles.js -->
<g id="edge5" class="edge">
<title>examples/4&#45;register&#45;form/RegisterForm.js&#45;&gt;examples/4&#45;register&#45;form/styles.js</title>
<path fill="none" stroke="#757575" d="M518.11,-56.28C615.86,-59.61 745.18,-64.02 839.45,-67.24"/>
<polygon fill="#757575" stroke="#757575" points="839.5,-70.74 849.61,-67.58 839.74,-63.74 839.5,-70.74"/>
</g>
<!-- examples/4&#45;register&#45;form/validation.js -->
<g id="node6" class="node">
<title>examples/4&#45;register&#45;form/validation.js</title>
<path fill="none" stroke="#cfffac" d="M802.83,-23C802.83,-23 565.17,-23 565.17,-23 561.33,-23 557.5,-19.17 557.5,-15.33 557.5,-15.33 557.5,-7.67 557.5,-7.67 557.5,-3.83 561.33,0 565.17,0 565.17,0 802.83,0 802.83,0 806.67,0 810.5,-3.83 810.5,-7.67 810.5,-7.67 810.5,-15.33 810.5,-15.33 810.5,-19.17 806.67,-23 802.83,-23"/>
<text text-anchor="middle" x="684" y="-7.8" font-family="Arial" font-size="14.00" fill="#cfffac">examples/4&#45;register&#45;form/validation.js</text>
</g>
<!-- examples/4&#45;register&#45;form/RegisterForm.js&#45;&gt;examples/4&#45;register&#45;form/validation.js -->
<g id="edge6" class="edge">
<title>examples/4&#45;register&#45;form/RegisterForm.js&#45;&gt;examples/4&#45;register&#45;form/validation.js</title>
<path fill="none" stroke="#757575" d="M465.81,-39.98C503.13,-35.09 546.79,-29.36 585.14,-24.33"/>
<polygon fill="#757575" stroke="#757575" points="585.82,-27.77 595.28,-23 584.91,-20.83 585.82,-27.77"/>
</g>
<!-- examples/4&#45;register&#45;form/FormField.js&#45;&gt;examples/4&#45;register&#45;form/styles.js -->
<g id="edge3" class="edge">
<title>examples/4&#45;register&#45;form/FormField.js&#45;&gt;examples/4&#45;register&#45;form/styles.js</title>
<path fill="none" stroke="#757575" d="M814.11,-82.26C822.55,-81.66 831.05,-81.05 839.47,-80.45"/>
<polygon fill="#757575" stroke="#757575" points="839.97,-83.92 849.69,-79.72 839.47,-76.94 839.97,-83.92"/>
</g>
</g>
</svg>
